<?xml version="1.0" encoding="utf-8"?>
<svg version="1.1" xmlns="http://www.w3.org/2000/svg" xmlns:xlink="http://www.w3.org/1999/xlink" viewBox="0 0 118.7 118.7">
 <path d="M117.5,36.9c-2.1-18.7-16.9-33.5-35.7-35.6l-0.3,0c-14.7-1.7-29.6-1.7-44.3,0l-0.3,0C18.2,3.4,3.4,18.2,1.2,36.9	c-1.7,14.7-1.7,29.6,0,44.3l0.1,0.5c2.1,18.8,16.9,33.6,35.7,35.7l0.3,0c14.7,1.7,29.6,1.7,44.3,0l0.3,0	c18.8-2.1,33.6-16.9,35.7-35.7l0.1-0.5C119.2,66.5,119.2,51.7,117.5,36.9z M44.3,72.2V46.6c0-5,5.4-8.1,9.7-5.6l22.2,12.8	c4.3,2.5,4.3,8.7,0,11.2L54,77.8C49.7,80.3,44.3,77.2,44.3,72.2z"/>
</svg>
